<?xml version="1.0" encoding="utf-8"?>
<!DOCTYPE svg PUBLIC "-//W3C//DTD SVG 20010904//EN" "http://www.w3.org/TR/2001/REC-SVG-20010904/DTD/svg10.dtd">
<svg xmlns="http://www.w3.org/2000/svg" xml:space="preserve" xmlns:xlink="http://www.w3.org/1999/xlink" width="492" height="492" viewBox="0 0 492 492">
<desc></desc>
<rect width="492" height="492" fill="#ffffff" cx="0" cy="0" />
<defs>
<rect id="p" width="12" height="12" />
</defs>
<g fill="#000000">
<use x="24" y="24" xlink:href="#p" />
<use x="36" y="24" xlink:href="#p" />
<use x="48" y="24" xlink:href="#p" />
<use x="60" y="24" xlink:href="#p" />
<use x="72" y="24" xlink:href="#p" />
<use x="84" y="24" xlink:href="#p" />
<use x="96" y="24" xlink:href="#p" />
<use x="120" y="24" xlink:href="#p" />
<use x="144" y="24" xlink:href="#p" />
<use x="168" y="24" xlink:href="#p" />
<use x="180" y="24" xlink:href="#p" />
<use x="204" y="24" xlink:href="#p" />
<use x="216" y="24" xlink:href="#p" />
<use x="240" y="24" xlink:href="#p" />
<use x="276" y="24" xlink:href="#p" />
<use x="288" y="24" xlink:href="#p" />
<use x="300" y="24" xlink:href="#p" />
<use x="312" y="24" xlink:href="#p" />
<use x="384" y="24" xlink:href="#p" />
<use x="396" y="24" xlink:href="#p" />
<use x="408" y="24" xlink:href="#p" />
<use x="420" y="24" xlink:href="#p" />
<use x="432" y="24" xlink:href="#p" />
<use x="444" y="24" xlink:href="#p" />
<use x="456" y="24" xlink:href="#p" />
<use x="24" y="36" xlink:href="#p" />
<use x="96" y="36" xlink:href="#p" />
<use x="120" y="36" xlink:href="#p" />
<use x="144" y="36" xlink:href="#p" />
<use x="180" y="36" xlink:href="#p" />
<use x="204" y="36" xlink:href="#p" />
<use x="240" y="36" xlink:href="#p" />
<use x="288" y="36" xlink:href="#p" />
<use x="324" y="36" xlink:href="#p" />
<use x="336" y="36" xlink:href="#p" />
<use x="348" y="36" xlink:href="#p" />
<use x="384" y="36" xlink:href="#p" />
<use x="456" y="36" xlink:href="#p" />
<use x="24" y="48" xlink:href="#p" />
<use x="48" y="48" xlink:href="#p" />
<use x="60" y="48" xlink:href="#p" />
<use x="72" y="48" xlink:href="#p" />
<use x="96" y="48" xlink:href="#p" />
<use x="120" y="48" xlink:href="#p" />
<use x="132" y="48" xlink:href="#p" />
<use x="144" y="48" xlink:href="#p" />
<use x="204" y="48" xlink:href="#p" />
<use x="216" y="48" xlink:href="#p" />
<use x="228" y="48" xlink:href="#p" />
<use x="240" y="48" xlink:href="#p" />
<use x="252" y="48" xlink:href="#p" />
<use x="276" y="48" xlink:href="#p" />
<use x="312" y="48" xlink:href="#p" />
<use x="324" y="48" xlink:href="#p" />
<use x="348" y="48" xlink:href="#p" />
<use x="384" y="48" xlink:href="#p" />
<use x="408" y="48" xlink:href="#p" />
<use x="420" y="48" xlink:href="#p" />
<use x="432" y="48" xlink:href="#p" />
<use x="456" y="48" xlink:href="#p" />
<use x="24" y="60" xlink:href="#p" />
<use x="48" y="60" xlink:href="#p" />
<use x="60" y="60" xlink:href="#p" />
<use x="72" y="60" xlink:href="#p" />
<use x="96" y="60" xlink:href="#p" />
<use x="132" y="60" xlink:href="#p" />
<use x="156" y="60" xlink:href="#p" />
<use x="192" y="60" xlink:href="#p" />
<use x="228" y="60" xlink:href="#p" />
<use x="240" y="60" xlink:href="#p" />
<use x="252" y="60" xlink:href="#p" />
<use x="264" y="60" xlink:href="#p" />
<use x="276" y="60" xlink:href="#p" />
<use x="288" y="60" xlink:href="#p" />
<use x="300" y="60" xlink:href="#p" />
<use x="312" y="60" xlink:href="#p" />
<use x="336" y="60" xlink:href="#p" />
<use x="360" y="60" xlink:href="#p" />
<use x="384" y="60" xlink:href="#p" />
<use x="408" y="60" xlink:href="#p" />
<use x="420" y="60" xlink:href="#p" />
<use x="432" y="60" xlink:href="#p" />
<use x="456" y="60" xlink:href="#p" />
<use x="24" y="72" xlink:href="#p" />
<use x="48" y="72" xlink:href="#p" />
<use x="60" y="72" xlink:href="#p" />
<use x="72" y="72" xlink:href="#p" />
<use x="96" y="72" xlink:href="#p" />
<use x="132" y="72" xlink:href="#p" />
<use x="144" y="72" xlink:href="#p" />
<use x="168" y="72" xlink:href="#p" />
<use x="240" y="72" xlink:href="#p" />
<use x="264" y="72" xlink:href="#p" />
<use x="276" y="72" xlink:href="#p" />
<use x="300" y="72" xlink:href="#p" />
<use x="336" y="72" xlink:href="#p" />
<use x="360" y="72" xlink:href="#p" />
<use x="384" y="72" xlink:href="#p" />
<use x="408" y="72" xlink:href="#p" />
<use x="420" y="72" xlink:href="#p" />
<use x="432" y="72" xlink:href="#p" />
<use x="456" y="72" xlink:href="#p" />
<use x="24" y="84" xlink:href="#p" />
<use x="96" y="84" xlink:href="#p" />
<use x="120" y="84" xlink:href="#p" />
<use x="132" y="84" xlink:href="#p" />
<use x="144" y="84" xlink:href="#p" />
<use x="168" y="84" xlink:href="#p" />
<use x="192" y="84" xlink:href="#p" />
<use x="216" y="84" xlink:href="#p" />
<use x="240" y="84" xlink:href="#p" />
<use x="252" y="84" xlink:href="#p" />
<use x="276" y="84" xlink:href="#p" />
<use x="312" y="84" xlink:href="#p" />
<use x="360" y="84" xlink:href="#p" />
<use x="384" y="84" xlink:href="#p" />
<use x="456" y="84" xlink:href="#p" />
<use x="24" y="96" xlink:href="#p" />
<use x="36" y="96" xlink:href="#p" />
<use x="48" y="96" xlink:href="#p" />
<use x="60" y="96" xlink:href="#p" />
<use x="72" y="96" xlink:href="#p" />
<use x="84" y="96" xlink:href="#p" />
<use x="96" y="96" xlink:href="#p" />
<use x="120" y="96" xlink:href="#p" />
<use x="144" y="96" xlink:href="#p" />
<use x="168" y="96" xlink:href="#p" />
<use x="192" y="96" xlink:href="#p" />
<use x="216" y="96" xlink:href="#p" />
<use x="240" y="96" xlink:href="#p" />
<use x="264" y="96" xlink:href="#p" />
<use x="288" y="96" xlink:href="#p" />
<use x="312" y="96" xlink:href="#p" />
<use x="336" y="96" xlink:href="#p" />
<use x="360" y="96" xlink:href="#p" />
<use x="384" y="96" xlink:href="#p" />
<use x="396" y="96" xlink:href="#p" />
<use x="408" y="96" xlink:href="#p" />
<use x="420" y="96" xlink:href="#p" />
<use x="432" y="96" xlink:href="#p" />
<use x="444" y="96" xlink:href="#p" />
<use x="456" y="96" xlink:href="#p" />
<use x="120" y="108" xlink:href="#p" />
<use x="132" y="108" xlink:href="#p" />
<use x="156" y="108" xlink:href="#p" />
<use x="192" y="108" xlink:href="#p" />
<use x="204" y="108" xlink:href="#p" />
<use x="228" y="108" xlink:href="#p" />
<use x="276" y="108" xlink:href="#p" />
<use x="300" y="108" xlink:href="#p" />
<use x="312" y="108" xlink:href="#p" />
<use x="336" y="108" xlink:href="#p" />
<use x="360" y="108" xlink:href="#p" />
<use x="48" y="120" xlink:href="#p" />
<use x="60" y="120" xlink:href="#p" />
<use x="72" y="120" xlink:href="#p" />
<use x="96" y="120" xlink:href="#p" />
<use x="120" y="120" xlink:href="#p" />
<use x="132" y="120" xlink:href="#p" />
<use x="168" y="120" xlink:href="#p" />
<use x="216" y="120" xlink:href="#p" />
<use x="276" y="120" xlink:href="#p" />
<use x="312" y="120" xlink:href="#p" />
<use x="348" y="120" xlink:href="#p" />
<use x="372" y="120" xlink:href="#p" />
<use x="384" y="120" xlink:href="#p" />
<use x="396" y="120" xlink:href="#p" />
<use x="432" y="120" xlink:href="#p" />
<use x="444" y="120" xlink:href="#p" />
<use x="456" y="120" xlink:href="#p" />
<use x="72" y="132" xlink:href="#p" />
<use x="132" y="132" xlink:href="#p" />
<use x="144" y="132" xlink:href="#p" />
<use x="156" y="132" xlink:href="#p" />
<use x="180" y="132" xlink:href="#p" />
<use x="192" y="132" xlink:href="#p" />
<use x="204" y="132" xlink:href="#p" />
<use x="228" y="132" xlink:href="#p" />
<use x="252" y="132" xlink:href="#p" />
<use x="276" y="132" xlink:href="#p" />
<use x="336" y="132" xlink:href="#p" />
<use x="348" y="132" xlink:href="#p" />
<use x="360" y="132" xlink:href="#p" />
<use x="372" y="132" xlink:href="#p" />
<use x="384" y="132" xlink:href="#p" />
<use x="432" y="132" xlink:href="#p" />
<use x="456" y="132" xlink:href="#p" />
<use x="24" y="144" xlink:href="#p" />
<use x="36" y="144" xlink:href="#p" />
<use x="48" y="144" xlink:href="#p" />
<use x="60" y="144" xlink:href="#p" />
<use x="84" y="144" xlink:href="#p" />
<use x="96" y="144" xlink:href="#p" />
<use x="108" y="144" xlink:href="#p" />
<use x="120" y="144" xlink:href="#p" />
<use x="156" y="144" xlink:href="#p" />
<use x="216" y="144" xlink:href="#p" />
<use x="300" y="144" xlink:href="#p" />
<use x="324" y="144" xlink:href="#p" />
<use x="384" y="144" xlink:href="#p" />
<use x="396" y="144" xlink:href="#p" />
<use x="420" y="144" xlink:href="#p" />
<use x="444" y="144" xlink:href="#p" />
<use x="24" y="156" xlink:href="#p" />
<use x="48" y="156" xlink:href="#p" />
<use x="84" y="156" xlink:href="#p" />
<use x="108" y="156" xlink:href="#p" />
<use x="120" y="156" xlink:href="#p" />
<use x="132" y="156" xlink:href="#p" />
<use x="144" y="156" xlink:href="#p" />
<use x="156" y="156" xlink:href="#p" />
<use x="180" y="156" xlink:href="#p" />
<use x="216" y="156" xlink:href="#p" />
<use x="240" y="156" xlink:href="#p" />
<use x="252" y="156" xlink:href="#p" />
<use x="264" y="156" xlink:href="#p" />
<use x="276" y="156" xlink:href="#p" />
<use x="288" y="156" xlink:href="#p" />
<use x="300" y="156" xlink:href="#p" />
<use x="312" y="156" xlink:href="#p" />
<use x="360" y="156" xlink:href="#p" />
<use x="384" y="156" xlink:href="#p" />
<use x="432" y="156" xlink:href="#p" />
<use x="36" y="168" xlink:href="#p" />
<use x="48" y="168" xlink:href="#p" />
<use x="60" y="168" xlink:href="#p" />
<use x="72" y="168" xlink:href="#p" />
<use x="96" y="168" xlink:href="#p" />
<use x="132" y="168" xlink:href="#p" />
<use x="144" y="168" xlink:href="#p" />
<use x="192" y="168" xlink:href="#p" />
<use x="204" y="168" xlink:href="#p" />
<use x="216" y="168" xlink:href="#p" />
<use x="228" y="168" xlink:href="#p" />
<use x="252" y="168" xlink:href="#p" />
<use x="276" y="168" xlink:href="#p" />
<use x="300" y="168" xlink:href="#p" />
<use x="312" y="168" xlink:href="#p" />
<use x="324" y="168" xlink:href="#p" />
<use x="336" y="168" xlink:href="#p" />
<use x="384" y="168" xlink:href="#p" />
<use x="396" y="168" xlink:href="#p" />
<use x="420" y="168" xlink:href="#p" />
<use x="456" y="168" xlink:href="#p" />
<use x="36" y="180" xlink:href="#p" />
<use x="48" y="180" xlink:href="#p" />
<use x="84" y="180" xlink:href="#p" />
<use x="108" y="180" xlink:href="#p" />
<use x="120" y="180" xlink:href="#p" />
<use x="144" y="180" xlink:href="#p" />
<use x="168" y="180" xlink:href="#p" />
<use x="180" y="180" xlink:href="#p" />
<use x="204" y="180" xlink:href="#p" />
<use x="264" y="180" xlink:href="#p" />
<use x="276" y="180" xlink:href="#p" />
<use x="300" y="180" xlink:href="#p" />
<use x="312" y="180" xlink:href="#p" />
<use x="348" y="180" xlink:href="#p" />
<use x="360" y="180" xlink:href="#p" />
<use x="396" y="180" xlink:href="#p" />
<use x="420" y="180" xlink:href="#p" />
<use x="432" y="180" xlink:href="#p" />
<use x="444" y="180" xlink:href="#p" />
<use x="84" y="192" xlink:href="#p" />
<use x="96" y="192" xlink:href="#p" />
<use x="144" y="192" xlink:href="#p" />
<use x="156" y="192" xlink:href="#p" />
<use x="180" y="192" xlink:href="#p" />
<use x="192" y="192" xlink:href="#p" />
<use x="216" y="192" xlink:href="#p" />
<use x="240" y="192" xlink:href="#p" />
<use x="264" y="192" xlink:href="#p" />
<use x="276" y="192" xlink:href="#p" />
<use x="288" y="192" xlink:href="#p" />
<use x="300" y="192" xlink:href="#p" />
<use x="312" y="192" xlink:href="#p" />
<use x="372" y="192" xlink:href="#p" />
<use x="408" y="192" xlink:href="#p" />
<use x="420" y="192" xlink:href="#p" />
<use x="444" y="192" xlink:href="#p" />
<use x="456" y="192" xlink:href="#p" />
<use x="72" y="204" xlink:href="#p" />
<use x="132" y="204" xlink:href="#p" />
<use x="144" y="204" xlink:href="#p" />
<use x="168" y="204" xlink:href="#p" />
<use x="240" y="204" xlink:href="#p" />
<use x="252" y="204" xlink:href="#p" />
<use x="264" y="204" xlink:href="#p" />
<use x="276" y="204" xlink:href="#p" />
<use x="324" y="204" xlink:href="#p" />
<use x="384" y="204" xlink:href="#p" />
<use x="396" y="204" xlink:href="#p" />
<use x="444" y="204" xlink:href="#p" />
<use x="456" y="204" xlink:href="#p" />
<use x="36" y="216" xlink:href="#p" />
<use x="60" y="216" xlink:href="#p" />
<use x="84" y="216" xlink:href="#p" />
<use x="96" y="216" xlink:href="#p" />
<use x="108" y="216" xlink:href="#p" />
<use x="132" y="216" xlink:href="#p" />
<use x="144" y="216" xlink:href="#p" />
<use x="180" y="216" xlink:href="#p" />
<use x="192" y="216" xlink:href="#p" />
<use x="204" y="216" xlink:href="#p" />
<use x="264" y="216" xlink:href="#p" />
<use x="276" y="216" xlink:href="#p" />
<use x="300" y="216" xlink:href="#p" />
<use x="324" y="216" xlink:href="#p" />
<use x="336" y="216" xlink:href="#p" />
<use x="372" y="216" xlink:href="#p" />
<use x="432" y="216" xlink:href="#p" />
<use x="456" y="216" xlink:href="#p" />
<use x="48" y="228" xlink:href="#p" />
<use x="60" y="228" xlink:href="#p" />
<use x="84" y="228" xlink:href="#p" />
<use x="120" y="228" xlink:href="#p" />
<use x="132" y="228" xlink:href="#p" />
<use x="144" y="228" xlink:href="#p" />
<use x="156" y="228" xlink:href="#p" />
<use x="192" y="228" xlink:href="#p" />
<use x="240" y="228" xlink:href="#p" />
<use x="264" y="228" xlink:href="#p" />
<use x="288" y="228" xlink:href="#p" />
<use x="312" y="228" xlink:href="#p" />
<use x="324" y="228" xlink:href="#p" />
<use x="348" y="228" xlink:href="#p" />
<use x="360" y="228" xlink:href="#p" />
<use x="384" y="228" xlink:href="#p" />
<use x="48" y="240" xlink:href="#p" />
<use x="96" y="240" xlink:href="#p" />
<use x="108" y="240" xlink:href="#p" />
<use x="120" y="240" xlink:href="#p" />
<use x="132" y="240" xlink:href="#p" />
<use x="144" y="240" xlink:href="#p" />
<use x="168" y="240" xlink:href="#p" />
<use x="180" y="240" xlink:href="#p" />
<use x="204" y="240" xlink:href="#p" />
<use x="216" y="240" xlink:href="#p" />
<use x="240" y="240" xlink:href="#p" />
<use x="312" y="240" xlink:href="#p" />
<use x="324" y="240" xlink:href="#p" />
<use x="336" y="240" xlink:href="#p" />
<use x="372" y="240" xlink:href="#p" />
<use x="408" y="240" xlink:href="#p" />
<use x="420" y="240" xlink:href="#p" />
<use x="432" y="240" xlink:href="#p" />
<use x="444" y="240" xlink:href="#p" />
<use x="456" y="240" xlink:href="#p" />
<use x="108" y="252" xlink:href="#p" />
<use x="120" y="252" xlink:href="#p" />
<use x="192" y="252" xlink:href="#p" />
<use x="216" y="252" xlink:href="#p" />
<use x="240" y="252" xlink:href="#p" />
<use x="264" y="252" xlink:href="#p" />
<use x="276" y="252" xlink:href="#p" />
<use x="312" y="252" xlink:href="#p" />
<use x="324" y="252" xlink:href="#p" />
<use x="396" y="252" xlink:href="#p" />
<use x="408" y="252" xlink:href="#p" />
<use x="420" y="252" xlink:href="#p" />
<use x="432" y="252" xlink:href="#p" />
<use x="456" y="252" xlink:href="#p" />
<use x="72" y="264" xlink:href="#p" />
<use x="84" y="264" xlink:href="#p" />
<use x="96" y="264" xlink:href="#p" />
<use x="108" y="264" xlink:href="#p" />
<use x="168" y="264" xlink:href="#p" />
<use x="180" y="264" xlink:href="#p" />
<use x="252" y="264" xlink:href="#p" />
<use x="264" y="264" xlink:href="#p" />
<use x="288" y="264" xlink:href="#p" />
<use x="300" y="264" xlink:href="#p" />
<use x="336" y="264" xlink:href="#p" />
<use x="348" y="264" xlink:href="#p" />
<use x="372" y="264" xlink:href="#p" />
<use x="396" y="264" xlink:href="#p" />
<use x="408" y="264" xlink:href="#p" />
<use x="444" y="264" xlink:href="#p" />
<use x="456" y="264" xlink:href="#p" />
<use x="36" y="276" xlink:href="#p" />
<use x="60" y="276" xlink:href="#p" />
<use x="72" y="276" xlink:href="#p" />
<use x="144" y="276" xlink:href="#p" />
<use x="156" y="276" xlink:href="#p" />
<use x="192" y="276" xlink:href="#p" />
<use x="204" y="276" xlink:href="#p" />
<use x="240" y="276" xlink:href="#p" />
<use x="264" y="276" xlink:href="#p" />
<use x="276" y="276" xlink:href="#p" />
<use x="300" y="276" xlink:href="#p" />
<use x="312" y="276" xlink:href="#p" />
<use x="324" y="276" xlink:href="#p" />
<use x="336" y="276" xlink:href="#p" />
<use x="360" y="276" xlink:href="#p" />
<use x="396" y="276" xlink:href="#p" />
<use x="444" y="276" xlink:href="#p" />
<use x="456" y="276" xlink:href="#p" />
<use x="24" y="288" xlink:href="#p" />
<use x="36" y="288" xlink:href="#p" />
<use x="48" y="288" xlink:href="#p" />
<use x="60" y="288" xlink:href="#p" />
<use x="72" y="288" xlink:href="#p" />
<use x="96" y="288" xlink:href="#p" />
<use x="144" y="288" xlink:href="#p" />
<use x="156" y="288" xlink:href="#p" />
<use x="168" y="288" xlink:href="#p" />
<use x="192" y="288" xlink:href="#p" />
<use x="204" y="288" xlink:href="#p" />
<use x="216" y="288" xlink:href="#p" />
<use x="252" y="288" xlink:href="#p" />
<use x="264" y="288" xlink:href="#p" />
<use x="276" y="288" xlink:href="#p" />
<use x="300" y="288" xlink:href="#p" />
<use x="324" y="288" xlink:href="#p" />
<use x="336" y="288" xlink:href="#p" />
<use x="360" y="288" xlink:href="#p" />
<use x="372" y="288" xlink:href="#p" />
<use x="420" y="288" xlink:href="#p" />
<use x="432" y="288" xlink:href="#p" />
<use x="444" y="288" xlink:href="#p" />
<use x="24" y="300" xlink:href="#p" />
<use x="36" y="300" xlink:href="#p" />
<use x="48" y="300" xlink:href="#p" />
<use x="72" y="300" xlink:href="#p" />
<use x="120" y="300" xlink:href="#p" />
<use x="156" y="300" xlink:href="#p" />
<use x="168" y="300" xlink:href="#p" />
<use x="180" y="300" xlink:href="#p" />
<use x="216" y="300" xlink:href="#p" />
<use x="228" y="300" xlink:href="#p" />
<use x="264" y="300" xlink:href="#p" />
<use x="276" y="300" xlink:href="#p" />
<use x="288" y="300" xlink:href="#p" />
<use x="312" y="300" xlink:href="#p" />
<use x="324" y="300" xlink:href="#p" />
<use x="360" y="300" xlink:href="#p" />
<use x="396" y="300" xlink:href="#p" />
<use x="24" y="312" xlink:href="#p" />
<use x="60" y="312" xlink:href="#p" />
<use x="84" y="312" xlink:href="#p" />
<use x="96" y="312" xlink:href="#p" />
<use x="120" y="312" xlink:href="#p" />
<use x="144" y="312" xlink:href="#p" />
<use x="156" y="312" xlink:href="#p" />
<use x="168" y="312" xlink:href="#p" />
<use x="204" y="312" xlink:href="#p" />
<use x="228" y="312" xlink:href="#p" />
<use x="240" y="312" xlink:href="#p" />
<use x="264" y="312" xlink:href="#p" />
<use x="288" y="312" xlink:href="#p" />
<use x="312" y="312" xlink:href="#p" />
<use x="336" y="312" xlink:href="#p" />
<use x="360" y="312" xlink:href="#p" />
<use x="372" y="312" xlink:href="#p" />
<use x="24" y="324" xlink:href="#p" />
<use x="36" y="324" xlink:href="#p" />
<use x="72" y="324" xlink:href="#p" />
<use x="108" y="324" xlink:href="#p" />
<use x="132" y="324" xlink:href="#p" />
<use x="144" y="324" xlink:href="#p" />
<use x="156" y="324" xlink:href="#p" />
<use x="192" y="324" xlink:href="#p" />
<use x="240" y="324" xlink:href="#p" />
<use x="252" y="324" xlink:href="#p" />
<use x="264" y="324" xlink:href="#p" />
<use x="276" y="324" xlink:href="#p" />
<use x="288" y="324" xlink:href="#p" />
<use x="348" y="324" xlink:href="#p" />
<use x="384" y="324" xlink:href="#p" />
<use x="396" y="324" xlink:href="#p" />
<use x="408" y="324" xlink:href="#p" />
<use x="420" y="324" xlink:href="#p" />
<use x="432" y="324" xlink:href="#p" />
<use x="444" y="324" xlink:href="#p" />
<use x="456" y="324" xlink:href="#p" />
<use x="24" y="336" xlink:href="#p" />
<use x="60" y="336" xlink:href="#p" />
<use x="96" y="336" xlink:href="#p" />
<use x="108" y="336" xlink:href="#p" />
<use x="132" y="336" xlink:href="#p" />
<use x="192" y="336" xlink:href="#p" />
<use x="204" y="336" xlink:href="#p" />
<use x="228" y="336" xlink:href="#p" />
<use x="240" y="336" xlink:href="#p" />
<use x="252" y="336" xlink:href="#p" />
<use x="264" y="336" xlink:href="#p" />
<use x="276" y="336" xlink:href="#p" />
<use x="300" y="336" xlink:href="#p" />
<use x="312" y="336" xlink:href="#p" />
<use x="336" y="336" xlink:href="#p" />
<use x="348" y="336" xlink:href="#p" />
<use x="360" y="336" xlink:href="#p" />
<use x="384" y="336" xlink:href="#p" />
<use x="408" y="336" xlink:href="#p" />
<use x="420" y="336" xlink:href="#p" />
<use x="444" y="336" xlink:href="#p" />
<use x="24" y="348" xlink:href="#p" />
<use x="84" y="348" xlink:href="#p" />
<use x="144" y="348" xlink:href="#p" />
<use x="180" y="348" xlink:href="#p" />
<use x="228" y="348" xlink:href="#p" />
<use x="252" y="348" xlink:href="#p" />
<use x="276" y="348" xlink:href="#p" />
<use x="288" y="348" xlink:href="#p" />
<use x="300" y="348" xlink:href="#p" />
<use x="348" y="348" xlink:href="#p" />
<use x="384" y="348" xlink:href="#p" />
<use x="396" y="348" xlink:href="#p" />
<use x="408" y="348" xlink:href="#p" />
<use x="420" y="348" xlink:href="#p" />
<use x="24" y="360" xlink:href="#p" />
<use x="48" y="360" xlink:href="#p" />
<use x="60" y="360" xlink:href="#p" />
<use x="72" y="360" xlink:href="#p" />
<use x="96" y="360" xlink:href="#p" />
<use x="120" y="360" xlink:href="#p" />
<use x="168" y="360" xlink:href="#p" />
<use x="192" y="360" xlink:href="#p" />
<use x="204" y="360" xlink:href="#p" />
<use x="228" y="360" xlink:href="#p" />
<use x="240" y="360" xlink:href="#p" />
<use x="252" y="360" xlink:href="#p" />
<use x="276" y="360" xlink:href="#p" />
<use x="300" y="360" xlink:href="#p" />
<use x="312" y="360" xlink:href="#p" />
<use x="324" y="360" xlink:href="#p" />
<use x="348" y="360" xlink:href="#p" />
<use x="360" y="360" xlink:href="#p" />
<use x="372" y="360" xlink:href="#p" />
<use x="384" y="360" xlink:href="#p" />
<use x="396" y="360" xlink:href="#p" />
<use x="408" y="360" xlink:href="#p" />
<use x="420" y="360" xlink:href="#p" />
<use x="444" y="360" xlink:href="#p" />
<use x="456" y="360" xlink:href="#p" />
<use x="120" y="372" xlink:href="#p" />
<use x="132" y="372" xlink:href="#p" />
<use x="156" y="372" xlink:href="#p" />
<use x="168" y="372" xlink:href="#p" />
<use x="180" y="372" xlink:href="#p" />
<use x="216" y="372" xlink:href="#p" />
<use x="228" y="372" xlink:href="#p" />
<use x="252" y="372" xlink:href="#p" />
<use x="324" y="372" xlink:href="#p" />
<use x="348" y="372" xlink:href="#p" />
<use x="360" y="372" xlink:href="#p" />
<use x="408" y="372" xlink:href="#p" />
<use x="24" y="384" xlink:href="#p" />
<use x="36" y="384" xlink:href="#p" />
<use x="48" y="384" xlink:href="#p" />
<use x="60" y="384" xlink:href="#p" />
<use x="72" y="384" xlink:href="#p" />
<use x="84" y="384" xlink:href="#p" />
<use x="96" y="384" xlink:href="#p" />
<use x="132" y="384" xlink:href="#p" />
<use x="144" y="384" xlink:href="#p" />
<use x="168" y="384" xlink:href="#p" />
<use x="180" y="384" xlink:href="#p" />
<use x="204" y="384" xlink:href="#p" />
<use x="216" y="384" xlink:href="#p" />
<use x="288" y="384" xlink:href="#p" />
<use x="300" y="384" xlink:href="#p" />
<use x="312" y="384" xlink:href="#p" />
<use x="324" y="384" xlink:href="#p" />
<use x="348" y="384" xlink:href="#p" />
<use x="360" y="384" xlink:href="#p" />
<use x="384" y="384" xlink:href="#p" />
<use x="408" y="384" xlink:href="#p" />
<use x="420" y="384" xlink:href="#p" />
<use x="24" y="396" xlink:href="#p" />
<use x="96" y="396" xlink:href="#p" />
<use x="180" y="396" xlink:href="#p" />
<use x="192" y="396" xlink:href="#p" />
<use x="204" y="396" xlink:href="#p" />
<use x="228" y="396" xlink:href="#p" />
<use x="240" y="396" xlink:href="#p" />
<use x="264" y="396" xlink:href="#p" />
<use x="300" y="396" xlink:href="#p" />
<use x="312" y="396" xlink:href="#p" />
<use x="324" y="396" xlink:href="#p" />
<use x="360" y="396" xlink:href="#p" />
<use x="408" y="396" xlink:href="#p" />
<use x="456" y="396" xlink:href="#p" />
<use x="24" y="408" xlink:href="#p" />
<use x="48" y="408" xlink:href="#p" />
<use x="60" y="408" xlink:href="#p" />
<use x="72" y="408" xlink:href="#p" />
<use x="96" y="408" xlink:href="#p" />
<use x="120" y="408" xlink:href="#p" />
<use x="156" y="408" xlink:href="#p" />
<use x="168" y="408" xlink:href="#p" />
<use x="192" y="408" xlink:href="#p" />
<use x="228" y="408" xlink:href="#p" />
<use x="240" y="408" xlink:href="#p" />
<use x="252" y="408" xlink:href="#p" />
<use x="276" y="408" xlink:href="#p" />
<use x="300" y="408" xlink:href="#p" />
<use x="324" y="408" xlink:href="#p" />
<use x="336" y="408" xlink:href="#p" />
<use x="360" y="408" xlink:href="#p" />
<use x="372" y="408" xlink:href="#p" />
<use x="384" y="408" xlink:href="#p" />
<use x="396" y="408" xlink:href="#p" />
<use x="408" y="408" xlink:href="#p" />
<use x="432" y="408" xlink:href="#p" />
<use x="444" y="408" xlink:href="#p" />
<use x="24" y="420" xlink:href="#p" />
<use x="48" y="420" xlink:href="#p" />
<use x="60" y="420" xlink:href="#p" />
<use x="72" y="420" xlink:href="#p" />
<use x="96" y="420" xlink:href="#p" />
<use x="120" y="420" xlink:href="#p" />
<use x="156" y="420" xlink:href="#p" />
<use x="168" y="420" xlink:href="#p" />
<use x="192" y="420" xlink:href="#p" />
<use x="204" y="420" xlink:href="#p" />
<use x="264" y="420" xlink:href="#p" />
<use x="312" y="420" xlink:href="#p" />
<use x="324" y="420" xlink:href="#p" />
<use x="348" y="420" xlink:href="#p" />
<use x="420" y="420" xlink:href="#p" />
<use x="456" y="420" xlink:href="#p" />
<use x="24" y="432" xlink:href="#p" />
<use x="48" y="432" xlink:href="#p" />
<use x="60" y="432" xlink:href="#p" />
<use x="72" y="432" xlink:href="#p" />
<use x="96" y="432" xlink:href="#p" />
<use x="120" y="432" xlink:href="#p" />
<use x="132" y="432" xlink:href="#p" />
<use x="216" y="432" xlink:href="#p" />
<use x="228" y="432" xlink:href="#p" />
<use x="240" y="432" xlink:href="#p" />
<use x="252" y="432" xlink:href="#p" />
<use x="264" y="432" xlink:href="#p" />
<use x="324" y="432" xlink:href="#p" />
<use x="384" y="432" xlink:href="#p" />
<use x="396" y="432" xlink:href="#p" />
<use x="432" y="432" xlink:href="#p" />
<use x="456" y="432" xlink:href="#p" />
<use x="24" y="444" xlink:href="#p" />
<use x="96" y="444" xlink:href="#p" />
<use x="144" y="444" xlink:href="#p" />
<use x="168" y="444" xlink:href="#p" />
<use x="180" y="444" xlink:href="#p" />
<use x="204" y="444" xlink:href="#p" />
<use x="252" y="444" xlink:href="#p" />
<use x="276" y="444" xlink:href="#p" />
<use x="312" y="444" xlink:href="#p" />
<use x="324" y="444" xlink:href="#p" />
<use x="372" y="444" xlink:href="#p" />
<use x="384" y="444" xlink:href="#p" />
<use x="408" y="444" xlink:href="#p" />
<use x="456" y="444" xlink:href="#p" />
<use x="24" y="456" xlink:href="#p" />
<use x="36" y="456" xlink:href="#p" />
<use x="48" y="456" xlink:href="#p" />
<use x="60" y="456" xlink:href="#p" />
<use x="72" y="456" xlink:href="#p" />
<use x="84" y="456" xlink:href="#p" />
<use x="96" y="456" xlink:href="#p" />
<use x="132" y="456" xlink:href="#p" />
<use x="156" y="456" xlink:href="#p" />
<use x="168" y="456" xlink:href="#p" />
<use x="216" y="456" xlink:href="#p" />
<use x="228" y="456" xlink:href="#p" />
<use x="252" y="456" xlink:href="#p" />
<use x="336" y="456" xlink:href="#p" />
<use x="348" y="456" xlink:href="#p" />
<use x="360" y="456" xlink:href="#p" />
<use x="372" y="456" xlink:href="#p" />
<use x="384" y="456" xlink:href="#p" />
<use x="396" y="456" xlink:href="#p" />
<use x="408" y="456" xlink:href="#p" />
<use x="432" y="456" xlink:href="#p" />
<use x="444" y="456" xlink:href="#p" />
<use x="456" y="456" xlink:href="#p" />
</g>
</svg>